<?xml version="1.0" encoding="UTF-8" standalone="no"?>
<svg
   xmlns:dc="http://purl.org/dc/elements/1.1/"
   xmlns:cc="http://creativecommons.org/ns#"
   xmlns:rdf="http://www.w3.org/1999/02/22-rdf-syntax-ns#"
   xmlns="http://www.w3.org/2000/svg"
   viewBox="0 0 1003.0959 382.69998"
   height="382.69998"
   width="1003.0959"
   xml:space="preserve"
   id="svg2"
   version="1.1"><metadata
     id="metadata8"><rdf:RDF><cc:Work
         rdf:about=""><dc:format>image/svg+xml</dc:format><dc:type
           rdf:resource="http://purl.org/dc/dcmitype/StillImage" /></cc:Work></rdf:RDF></metadata><defs
     id="defs6" /><g
     transform="matrix(1.3333333,0,0,-1.3333333,0,382.69999)"
     id="g10"><g
       transform="scale(0.1)"
       id="g12"><path
         id="path14"
         style="fill:#2e3192;fill-opacity:1;fill-rule:evenodd;stroke:none"
         d="m 2095.07,2870.25 664.24,-953.25 -0.62,606.59 c -0.17,170.64 -24.92,300.91 -227.05,296.68 v 49.98 h 518.97 v -49.98 c -188.34,-27.29 -206.09,-108.38 -206.09,-296.68 V 1006.72 h -39.56 L 1742.52,2523.59 v -1158.3 c 0,-173.73 59.96,-267.32 240.88,-267.32 v -49.53 h -557.33 v 49.53 c 183.24,1.93 231.8,95.04 231.8,267.32 v 1285.77 l -33.63,48.61 c -33.22,48.15 -62.49,79.79 -88.2,95.38 -25.32,15.13 -62.1,23.39 -109.97,25.22 v 49.98 z m 1809.23,-105.01 0.7,-517.97 c 26.72,41.5 61.11,83.85 101.58,115.42 150.96,117.72 375.41,26.7 370.45,-211.19 -3.67,-176.38 -135,-336.23 -268.42,-441.29 -57.91,-45.58 -121.87,-86.09 -203.38,-141.81 l -0.05,-278.5 c 5.68,-174.82 59.02,-191.93 212.65,-191.93 v -49.53 h -958.06 v 49.53 c 200.46,0 221.12,71.46 221.12,262.28 v 1198.19 c 0,137.98 5.05,261.83 -168.9,261.83 h -52.22 v 49.98 H 4621.76 V 2347.5 h -47.46 c -30.86,355.24 -212.68,417.74 -532.82,417.74 z M 6004.59,2870.25 5217.46,1150.7 H 5380 c 393.46,0 601.31,149.96 672.05,556.22 h 45.1 l -63.69,-658.48 H 4594.43 l 788.32,1722.31 -90.11,-0.37 c -294.05,-1.2 -457.05,-77.93 -529.3,-433.42 h -42.71 l 42.71,533.29 z M 3887.01,2243.82 c -26.31,40.64 -57.97,82.12 -97.83,113.04 -148.67,115.29 -369.71,26.14 -364.84,-206.83 3.61,-172.76 132.96,-329.31 264.37,-432.2 57.02,-44.65 120.02,-84.32 200.29,-138.89 z M 7422.07,223.398 c -12.09,-12.089 -37.38,-25.293 -54.98,-25.293 -20.88,0 -46.17,15.411 -46.17,49.493 0,23.086 14.29,36.269 40.68,47.265 14.3,6.602 46.17,19.805 60.47,27.5 z m 47.27,136.329 c 0,34.101 -6.59,59.375 -28.58,78.066 -14.3,12.09 -34.08,17.598 -52.77,17.598 -37.38,-7.696 -80.28,-31.895 -97.85,-45.078 -12.11,-8.79 -20.9,-16.485 -20.9,-26.387 0,-14.297 16.5,-26.387 27.48,-26.387 9.9,0 15.41,3.301 18.69,14.297 4.41,19.785 11,34.082 19.8,42.871 6.59,7.695 17.58,12.09 30.79,12.09 32.98,0 56.07,-26.387 56.07,-72.559 v -9.902 c -14.3,-10.996 -61.58,-28.574 -102.25,-41.777 -36.28,-12.09 -53.88,-32.989 -53.88,-63.77 0,-40.684 32.99,-79.16 79.16,-79.16 19.8,0 51.68,24.199 78.06,41.777 3.3,-10.996 6.61,-20.879 15.39,-29.687 6.61,-6.582 20.9,-12.09 29.69,-12.09 l 54.98,32.988 -6.6,14.297 c -6.6,-3.301 -16.48,-6.601 -24.18,-6.601 -10.99,0 -23.1,8.789 -23.1,38.476 z m -326.12,224.355 c -17.58,0 -32.97,-14.297 -32.97,-34.082 0,-16.504 15.39,-31.895 32.97,-31.895 18.69,0 31.9,15.391 31.9,32.989 0,18.691 -13.21,32.988 -30.78,32.988 z m -20.88,-351.836 c 0,-43.984 -5.5,-48.379 -47.28,-51.68 v -15.39 h 144.04 v 15.39 c -41.8,3.301 -47.28,7.696 -47.28,51.68 v 222.09 c -27.48,-10.996 -58.27,-19.785 -91.25,-25.273 v -13.204 c 37.38,-6.601 41.77,-7.695 41.77,-51.679 z m -371.19,-73.242 c 26.39,71.484 53.87,138.535 79.16,203.418 25.3,-67.07 52.78,-131.934 79.16,-203.418 h 18.69 c 29.69,86.875 59.38,173.73 79.16,224.297 13.21,35.195 18.7,42.89 51.68,48.379 v 14.297 H 6941.35 V 431.68 c 41.79,-6.602 47.28,-8.789 38.49,-42.871 -13.2,-49.493 -31.89,-107.754 -46.19,-150.625 h -1.09 c -27.48,69.257 -54.98,138.515 -79.16,204.492 h -17.6 c -27.48,-73.672 -53.87,-145.137 -75.86,-203.399 h -1.09 c -16.49,48.379 -34.08,103.34 -50.59,152.832 -8.79,29.668 -5.49,32.969 34.1,39.571 v 14.297 H 6609.32 V 431.68 c 31.89,-4.395 36.29,-8.789 48.38,-42.871 26.38,-76.973 51.68,-153.926 74.76,-229.805 z m -296.21,295.527 c -58.26,0 -142.93,-48.379 -142.93,-153.926 0,-71.464 53.87,-141.835 142.93,-141.835 63.77,0 141.84,49.472 141.84,152.832 0,79.16 -61.58,142.929 -140.74,142.929 z m -6.6,-20.898 c 57.19,0 89.06,-62.656 89.06,-135.235 0,-89.043 -34.08,-118.73 -75.86,-118.73 -53.88,0 -90.15,60.469 -90.15,141.836 0,71.465 34.08,112.129 75.86,112.129 z m -319.41,-202.52 c 0,-42.871 -4.4,-47.265 -46.18,-50.566 v -15.391 h 151.74 v 15.391 c -50.58,3.301 -56.07,7.695 -56.07,50.566 v 114.356 c 14.28,36.289 35.17,60.469 52.77,60.469 11,0 19.79,-4.395 28.58,-14.297 4.39,-3.301 9.9,-4.395 17.59,-1.094 12.09,5.488 19.79,18.691 19.79,30.781 0,14.297 -15.39,31.895 -37.38,31.895 -31.88,0 -60.47,-32.989 -80.26,-69.278 h -1.09 v 71.465 c -29.69,-13.183 -60.47,-20.879 -91.27,-26.387 V 415.84 c 39.59,-4.395 41.78,-6.602 41.78,-50.586 z m -679.55,351.875 c -19.81,0 -26.39,1.094 -34.11,16.504 h -13.18 c -1.09,-28.594 -4.39,-78.066 -7.7,-119.844 h 17.6 c 6.58,28.575 15.39,47.266 23.09,58.262 10.99,16.485 23.08,23.086 93.46,23.086 h 117.63 C 5552.71,430.156 5458.16,302.637 5365.8,175.098 l 5.51,-9.903 h 339.73 l 10.74,49.024 c -8.09,15.547 -9.49,21.972 -14.38,38.515 -8.32,-17.5 -16.64,-30.429 -24.94,-40.254 -18.69,-19.804 -45.08,-25.292 -127.54,-25.292 -45.08,0 -89.06,1.093 -111.05,4.394 91.25,129.746 183.61,256.172 274.86,382.617 l -4.39,8.789 z M 4972.09,445.742 c -24.2,1.094 -31.89,5.488 -36.29,15.391 h -11 c -5.48,-28.594 -15.39,-70.371 -23.08,-95.664 l 16.48,-4.395 8.81,16.485 c 17.58,35.195 28.58,47.285 79.16,47.285 h 56.06 C 5009.47,340.176 4953.4,255.527 4897.32,176.367 l 4.4,-10.996 h 214.39 c 11,26.387 19.79,53.867 29.69,78.067 l -16.5,7.695 -8.79,-15.391 c -24.18,-37.383 -37.38,-49.472 -87.95,-49.472 h -67.07 c 53.87,84.648 108.85,168.203 162.71,249.57 l -3.3,9.902 z m -126.23,-71.289 c -1.09,16.504 -8.79,54.981 -14.3,69.277 -13.18,5.489 -30.78,10.997 -58.26,10.997 -59.37,0 -97.85,-38.497 -97.85,-82.461 0,-48.379 41.78,-71.465 82.44,-87.969 31.9,-13.184 50.59,-29.688 50.59,-59.375 0,-29.688 -22,-45.078 -46.18,-45.078 -39.59,0 -70.37,35.195 -82.46,80.273 l -15.39,-3.301 c 1.1,-23.086 6.59,-67.07 12.09,-75.859 9.91,-9.902 40.69,-21.992 73.66,-21.992 52.79,0 107.75,29.687 107.75,89.062 0,43.965 -34.08,68.164 -83.56,86.856 -27.48,12.09 -54.98,27.48 -54.98,54.961 0,26.386 16.51,43.984 42.89,43.984 31.88,0 57.17,-25.293 69.26,-63.769 z M 4532.5,232.598 c -23.09,-20.879 -49.47,-32.989 -73.65,-32.989 -30.78,0 -58.28,16.504 -58.28,73.672 v 89.063 c 0,42.871 0,71.465 2.2,90.156 -9.9,-2.207 -27.48,-4.395 -45.07,-6.602 -17.6,-1.093 -35.18,-3.3 -48.38,-4.394 V 428.301 L 4330.21,425 c 15.4,-3.301 20.88,-7.695 20.88,-43.965 V 257.891 c 0,-71.465 38.5,-97.852 81.37,-97.852 17.6,0 32.99,5.488 51.68,16.484 18.69,9.903 32.97,21.993 48.36,34.082 v -46.171 l 3.3,-4.395 c 12.11,3.301 28.59,8.789 45.08,13.184 17.6,3.3 36.29,7.695 50.58,9.902 v 15.391 h -18.69 c -25.29,1.093 -30.78,5.488 -30.78,38.476 V 452.5 c -8.81,-2.207 -24.2,-4.395 -41.78,-6.602 -18.69,-1.093 -42.89,-3.3 -60.46,-4.394 V 428.301 L 4503.93,425 c 21.99,-3.301 28.57,-7.695 28.57,-43.965 z m -291.35,392.539 c -23.08,-7.696 -68.16,-17.598 -102.24,-21.992 v -14.297 c 48.38,-3.301 52.77,-4.395 52.77,-48.379 v -93.438 c -15.39,5.489 -36.29,7.696 -46.19,7.696 -87.95,0 -167.11,-72.579 -166.02,-158.34 0,-90.157 68.17,-137.422 120.96,-137.422 7.7,0 24.18,4.394 50.57,19.785 l 40.68,23.086 v -42.871 c 37.38,14.297 86.86,21.992 101.15,24.18 v 15.39 l -21.99,1.113 c -24.2,2.188 -29.69,6.582 -29.69,40.684 z m -49.47,-401.309 c -15.39,-10.996 -40.68,-25.293 -64.88,-25.293 -42.87,0 -90.14,37.383 -90.14,114.356 0,95.644 60.47,118.73 87.95,118.73 21.99,0 50.57,-9.883 67.07,-32.969 z m -526.22,7.5 c 0,-42.871 -7.69,-47.265 -48.37,-50.566 v -15.391 h 141.83 v 15.391 c -38.49,3.301 -43.98,7.695 -43.98,50.566 v 148.438 c 19.79,17.597 47.27,36.289 73.65,36.289 43.99,0 59.38,-30.801 59.38,-75.879 V 234.629 c 0,-46.172 -5.49,-50.566 -42.87,-53.867 v -15.391 h 135.23 v 15.391 c -37.38,3.301 -42.89,7.695 -42.89,50.566 v 124.238 c 0,61.582 -31.87,97.872 -83.55,97.872 -19.79,0 -36.29,-7.696 -53.87,-19.805 -16.5,-10.996 -31.89,-21.992 -45.08,-31.875 v 53.867 c -26.39,-13.184 -59.37,-20.879 -90.16,-26.387 v -13.183 c 37.38,-6.602 40.68,-8.809 40.68,-51.68 z m -174.15,0.84 c -23.08,-20.898 -49.47,-32.988 -74.76,-32.988 -29.69,0 -57.17,16.504 -57.17,73.672 v 89.062 c 0,42.871 0,71.465 2.2,90.156 -9.9,-2.207 -27.49,-4.414 -45.08,-6.601 -17.59,-1.094 -35.18,-3.301 -48.37,-4.395 v -13.203 l 19.78,-3.301 c 15.39,-3.3 21.99,-7.695 21.99,-43.965 V 257.461 c 0,-71.465 37.39,-97.852 81.37,-97.852 17.59,0 31.88,5.489 50.57,16.485 19.79,9.902 34.08,21.992 49.47,34.082 v -46.172 l 3.3,-4.395 c 12.1,3.301 28.59,8.789 45.08,13.184 17.6,3.301 36.29,7.695 49.47,9.902 v 15.391 h -18.68 c -24.19,1.094 -30.79,5.488 -30.79,38.477 V 452.07 c -8.79,-2.207 -23.09,-4.414 -40.68,-6.601 -18.69,-1.094 -43.97,-3.301 -60.47,-4.395 v -13.203 l 24.19,-3.301 c 21.99,-3.3 28.58,-7.695 28.58,-43.965 z m -477.94,13.77 c 0,-57.168 -5.5,-62.657 -58.27,-65.958 v -15.39 h 177.01 v 15.39 c -60.47,4.395 -65.97,8.79 -65.97,65.958 V 362.5 h 58.36 c 60.46,0 62.66,-7.715 70.36,-52.793 h 17.59 v 125.352 h -17.59 c -7.7,-41.778 -9.9,-48.379 -70.36,-48.379 h -58.36 v 153.925 c 0,19.786 2.2,20.879 20.9,20.879 h 46.17 c 52.77,0 68.17,-5.488 80.27,-23.086 8.79,-12.089 14.29,-27.48 19.78,-53.867 l 17.6,2.207 c -3.31,30.782 -6.6,70.352 -6.6,95.645 H 2957.3 v -15.391 c 50.57,-4.394 56.07,-8.789 56.07,-65.976 z m -559.84,181.015 c 16.38,-6.387 21.91,-18.379 31.53,-43.242 20.89,-47.285 49.48,-125.352 75.86,-197.91 3.3,-10.996 5.5,-18.692 2.2,-28.574 -3.3,-8.809 -8.79,-21.993 -20.89,-45.079 -15.39,-29.6871 -27.48,-45.0777 -48.38,-57.1871 -9.89,-7.6953 -16.49,-14.2773 -16.49,-24.1796 0,-14.2969 17.6,-30.7813 36.29,-30.7813 8.79,0 16.49,3.30078 19.78,15.3906 9.9,35.1758 23.1,71.4649 67.07,173.7114 46.18,107.753 68.17,162.714 84.66,195.703 18.69,37.383 21.99,41.777 57.18,47.285 v 14.297 H 2623.59 V 432.09 c 37.38,-5.508 42.88,-12.09 34.09,-36.289 -13.2,-40.684 -43.98,-122.031 -61.57,-162.715 l -61.57,163.809 c -8.8,23.105 -3.31,30.8 26.38,35.195 v 14.297 H 2458.6 c -45.75,0 10.23,-0.02 -34.67,-0.02 H 2332.7 V 432.09 c 42.87,-6.602 47.27,-8.809 38.48,-42.891 -13.2,-49.472 -31.89,-107.734 -45.08,-150.625 h -2.2 c -27.49,69.258 -53.88,138.535 -79.17,204.512 h -17.59 c -27.48,-73.672 -52.76,-145.137 -74.76,-203.418 h -2.19 c -16.5,48.379 -34.09,103.359 -49.48,152.832 -8.8,29.688 -5.5,32.988 32.98,39.59 v 14.277 H 2000.66 V 432.09 c 31.88,-4.414 37.38,-8.809 48.37,-42.891 27.49,-76.953 51.68,-153.926 74.77,-229.785 h 19.79 c 26.39,71.465 52.77,138.535 78.06,203.399 25.29,-67.071 53.87,-131.934 79.16,-203.399 h 18.69 c 30.79,86.856 60.47,173.711 79.16,224.297 11.03,27.227 16.31,38.027 33.66,44.043 8.23,2.832 13.12,2.344 21.21,-0.801 z m -624.61,27.774 c -59.37,0 -144.03,-48.379 -144.03,-153.926 0,-71.465 53.88,-141.836 144.03,-141.836 62.68,0 140.73,49.473 140.73,152.812 0,79.18 -61.56,142.95 -140.73,142.95 z m -7.69,-20.899 c 58.27,0 90.15,-62.676 90.15,-135.234 0,-89.063 -35.18,-118.75 -75.86,-118.75 -54.97,0 -91.25,60.488 -91.25,141.836 0,71.465 34.08,112.148 76.96,112.148 z m -217.69,191.309 c -23.09,-7.696 -68.17,-17.598 -102.25,-21.992 v -14.297 c 48.37,-3.301 52.77,-4.395 52.77,-48.379 v -93.438 c -15.4,5.489 -36.29,7.696 -46.18,7.696 -89.06,0 -167.12,-72.579 -166.02,-158.34 0,-90.157 68.17,-137.422 120.94,-137.422 6.6,0 24.19,4.394 50.58,19.785 l 40.68,23.086 v -42.871 c 37.38,14.297 86.85,21.992 100.05,24.18 v 15.39 l -20.89,1.113 c -25.29,2.188 -29.68,6.582 -29.68,40.684 z m -49.48,-401.309 c -16.49,-10.996 -40.68,-25.293 -64.87,-25.293 -42.88,0 -90.16,37.383 -90.16,114.356 0,95.644 60.47,118.73 87.96,118.73 21.99,0 50.58,-9.883 67.07,-32.969 z m -413.4,230.899 c -58.27,0 -142.93,-48.379 -142.93,-153.926 0,-71.465 53.87,-141.836 142.93,-141.836 63.77,0 141.83,49.473 141.83,152.812 0,79.18 -61.57,142.95 -140.73,142.95 z m -6.6,-20.899 c 57.17,0 89.06,-62.676 89.06,-135.234 0,-89.063 -34.08,-118.75 -74.76,-118.75 -54.98,0 -91.26,60.488 -91.26,141.836 0,71.465 34.09,112.148 75.86,112.148 z M 809.734,231.27 c 0,-42.872 -5.492,-47.266 -47.273,-50.567 v -15.39 h 151.727 v 15.39 c -50.575,3.301 -56.075,7.695 -56.075,50.567 v 114.355 c 14.293,36.27 36.285,60.469 52.778,60.469 10.996,0 19.789,-4.395 29.679,-14.297 3.301,-3.301 8.801,-4.395 16.496,-1.094 12.094,5.488 19.789,18.692 19.789,30.781 0,14.297 -15.39,31.875 -37.382,31.875 -31.883,0 -60.469,-32.968 -79.16,-69.257 h -2.2 v 71.464 C 828.43,442.363 797.645,434.668 766.859,429.18 v -13.203 c 39.582,-4.395 42.875,-6.582 42.875,-50.567 z m -172.183,-8.594 c -12.098,-12.11 -37.383,-25.293 -54.977,-25.293 -20.89,0 -46.179,15.39 -46.179,49.472 0,23.086 14.293,36.29 40.679,47.286 14.297,6.582 46.184,19.785 60.477,27.48 z m 47.273,136.328 c 0,34.082 -6.597,59.375 -28.586,78.066 -14.289,12.09 -34.086,17.598 -52.777,17.598 -37.375,-7.715 -80.258,-31.895 -97.852,-45.098 -12.093,-8.789 -20.886,-16.484 -20.886,-26.386 0,-14.278 16.492,-26.387 27.484,-26.387 9.898,0 15.391,3.301 18.691,14.297 4.399,19.785 10.997,34.082 19.79,42.89 6.597,7.696 17.593,12.09 30.789,12.09 32.98,0 56.074,-26.386 56.074,-72.558 v -9.903 c -14.293,-10.996 -61.574,-28.593 -102.254,-41.777 -36.281,-12.09 -53.875,-32.988 -53.875,-63.77 0,-40.683 32.988,-79.16 79.16,-79.16 19.793,0 51.68,24.18 78.066,41.778 3.301,-10.996 6.594,-20.899 15.391,-29.688 6.598,-6.601 20.895,-12.09 29.688,-12.09 l 54.968,32.969 -6.59,14.297 c -6.601,-3.301 -16.496,-6.582 -24.191,-6.582 -10.996,0 -23.09,8.789 -23.09,38.476 z M 71.4648,335.664 c 0,-58.262 -2.1953,-93.457 -4.3945,-113.242 C 63.7695,190.527 47.2734,181.738 9.89844,180.645 V 165.254 H 166.02 v 15.391 c -43.977,2.187 -60.469,9.882 -63.77,42.871 -1.098,18.691 -4.3984,53.886 -4.3984,112.148 v 160.527 h 1.1015 L 374.922,160.859 h 19.785 v 256.172 c 0,60.469 2.203,93.457 4.398,113.242 3.301,27.481 18.692,36.29 56.075,38.477 v 14.297 H 299.059 V 568.75 c 46.175,-3.301 61.566,-10.996 64.867,-40.684 2.195,-17.578 4.394,-50.566 4.394,-111.035 V 257.598 h -1.097 L 94.5547,583.047 H 0 V 568.75 c 30.7852,-3.301 45.082,-7.695 58.2695,-24.18 12.0977,-15.39 13.1953,-20.898 13.1953,-68.164 z M 5997.13,624.961 c -23.11,-7.695 -68.17,-17.598 -102.27,-21.992 v -14.297 c 48.38,-3.301 52.78,-4.395 52.78,-48.379 v -93.438 c -15.39,5.489 -36.27,7.696 -46.18,7.696 -87.94,0 -166.01,-72.578 -166.01,-158.34 0,-90.156 69.26,-137.422 120.94,-137.422 7.69,0 24.18,4.395 51.68,19.785 l 39.57,23.086 v -42.871 c 37.38,14.297 86.87,21.992 101.15,24.18 v 15.39 l -21.97,1.114 c -24.2,2.187 -29.69,6.582 -29.69,40.683 z m -49.49,-401.309 c -15.39,-10.996 -40.67,-25.293 -64.87,-25.293 -42.87,0 -90.15,37.383 -90.15,114.356 0,95.644 61.58,118.73 87.95,118.73 21.99,0 50.58,-9.882 67.07,-32.968 v -174.825 0" /></g></g></svg>
